<svg width="107" height="140" viewBox="0 0 107 140" fill="none" xmlns="http://www.w3.org/2000/svg">
<path d="M104.388 73.6082C101.71 85.3629 96.1359 95.0064 88.7786 103.989L53.7468 140L23.4369 110.201C16.2241 102.345 9.82707 94.4176 5.61776 84.6161C1.01858 72.7538 -0.591472 60.4965 0.188296 47.6504C13.105 49.0075 25.1986 51.3699 35.8121 57.7104C44.5484 62.9235 48.9094 71.7485 53.0031 81.8588C60.1438 57.7391 80.3817 48.8065 105.97 47.8227C106.453 56.224 105.897 64.532 104.396 73.6082H104.388Z" fill="#213B58" fill-opacity="0.12"/>
<path d="M53.1444 39.206C64.0304 39.206 72.8552 30.4295 72.8552 19.603C72.8552 8.77658 64.0304 0 53.1444 0C42.2584 0 33.4336 8.77658 33.4336 19.603C33.4336 30.4295 42.2584 39.206 53.1444 39.206Z" fill="#213B58" fill-opacity="0.12"/>
</svg>
