<svg xmlns="http://www.w3.org/2000/svg" width="107" height="140" fill="none" viewBox="0 0 107 140"><path fill="#213b58" fill-opacity=".12" d="M104.388 73.608c-2.678 11.755-8.252 21.398-15.61 30.381L53.748 140l-30.31-29.799c-7.213-7.856-13.61-15.783-17.82-25.585C1.02 72.754-.59 60.496.189 47.65c12.917 1.358 25.01 3.72 35.624 10.06 8.735 5.213 13.097 14.04 17.19 24.15 7.14-24.12 27.379-33.052 52.967-34.036.483 8.401-.073 16.709-1.574 25.785zM53.144 39.206c10.886 0 19.711-8.777 19.711-19.603S64.03 0 53.145 0C42.257 0 33.433 8.777 33.433 19.603s8.824 19.603 19.71 19.603"/></svg>