<svg xmlns="http://www.w3.org/2000/svg" width="121" height="73" fill="none" viewBox="0 0 121 73"><g clip-path="url(#a)"><path fill="#002581" d="m31.179 72.968-.108-.02a4.06 4.06 0 0 1-2.638-1.553 4.12 4.12 0 0 1-.82-2.962V50.41h4.015v17.5c.087 1.811.317 1.949 1.34 2.17l.82.108-2.303 2.618-.168.193-.145-.032zM55.73 60.312a8.6 8.6 0 0 0-5.102 1.487V72.45h-4.044v-9.909c0-1.055-.178-1.573-.383-1.771a1.76 1.76 0 0 0-1.321-.452 8.6 8.6 0 0 0-5.08 1.488v10.65h-4.044V57.679h4.045v1.215a11.8 11.8 0 0 1 5.436-1.625h.027a5.15 5.15 0 0 1 2.512.57c.776.4 1.44.992 1.928 1.718a12.36 12.36 0 0 1 6.42-2.288 6.47 6.47 0 0 1 4.475 1.649 7.1 7.1 0 0 1 1.288 5.07v8.47H57.49v-9.904c0-1.067-.169-1.582-.39-1.783a1.8 1.8 0 0 0-1.347-.454m15.353 12.578h-.013a6.85 6.85 0 0 1-2.682-.456 6.9 6.9 0 0 1-2.297-1.465 7.8 7.8 0 0 1-1.599-2.63 7.8 7.8 0 0 1-.457-3.05v-.022a7.7 7.7 0 0 1 .558-3.385 7.66 7.66 0 0 1 1.97-2.8 9.16 9.16 0 0 1 5.954-1.866c2.566.03 5.096.62 7.415 1.727l.148.068v13.431h-4.06v-1.449a7 7 0 0 1-4.914 1.895h-.023zm1.18-12.785c-2.548 0-3.876 1.988-3.918 4.874.03 2.745 1.574 4.525 3.707 4.526a7.17 7.17 0 0 0 3.957-1.264v-7.464a11.7 11.7 0 0 0-3.736-.679h-.014zm-50.71 12.34L13.553 55.7l-4.146 8.595h7.902l-.115.34c-.36 1.036-.598 1.708-1.18 2.047a5.1 5.1 0 0 1-2.342.29h-5.56l-2.64 5.475H1.817l10.72-21.896.068-.142h3.678l10.36 22.041zm90.519-.001h-.252V58.91l4.045-1.649V72.45zm-29.001.001V57.672h4.044v1.188a8.83 8.83 0 0 1 5.393-1.604h.484l.301.009-.674 3.393-.247-.048a7.7 7.7 0 0 0-1.349-.115 6.87 6.87 0 0 0-3.9 1.084v10.873zm16.869.445h-.02a6.85 6.85 0 0 1-4.973-1.919 7.8 7.8 0 0 1-1.598-2.628 7.8 7.8 0 0 1-.458-3.082 7.7 7.7 0 0 1 .56-3.381 7.66 7.66 0 0 1 1.968-2.797 9.15 9.15 0 0 1 5.955-1.866c2.566.03 5.096.62 7.415 1.727l.15.07v13.43h-4.053v-1.453a6.98 6.98 0 0 1-4.914 1.899zm1.18-12.785c-2.547.01-3.876 1.988-3.913 4.872.03 2.749 1.567 4.526 3.707 4.528a7.16 7.16 0 0 0 3.957-1.264v-7.464a11.7 11.7 0 0 0-3.735-.679h-.016zm12.682-3.55a2.5 2.5 0 0 1-1.799-.677 2.54 2.54 0 0 1-.799-1.759 2.54 2.54 0 0 1 .799-1.758 2.5 2.5 0 0 1 1.799-.676 2.52 2.52 0 0 1 1.801.678 2.55 2.55 0 0 1 .806 1.756 2.55 2.55 0 0 1-.806 1.757c-.488.456-1.135.7-1.801.678m-2.772-17.388V14.996h4.818V39.17zm-53.567 0V21.527l4.822-1.39v19.034zm-10.8-3.23h6.081v3.254H33.47a3.99 3.99 0 0 1-3.334-1.128 9.1 9.1 0 0 1-1.378-3.733c-.506-2.205-.777-3.516-1.13-5.062a6.1 6.1 0 0 0-.773-2.197c-.295-.37-.633-.545-1.488-.558h-1.093L26.876 39.2H9.69l.022-.042a6.7 6.7 0 0 1-2.912-.67 6.7 6.7 0 0 1-2.334-1.875 9.86 9.86 0 0 1-1.478-5.889v-3.471l.07-.119a43 43 0 0 1 3.875-5.364l.888-1.04v10.46a6.2 6.2 0 0 0 .777 3.876c.495.605 1.392.877 3.065.877h9.857l-2.528-12.63h6.51c3.343-.021 5.056 2.43 5.686 5.479.36 1.65.853 3.826 1.094 4.896.08.697.277 1.374.581 2.005.101.15.38.25 1.374.25h4.635a5.1 5.1 0 0 1-1.353-1.83 5.14 5.14 0 0 1-.426-2.242 5.8 5.8 0 0 1 .865-3.03 5.75 5.75 0 0 1 2.32-2.12 13.84 13.84 0 0 1 6.672-1.516 14.8 14.8 0 0 1 5.141.867l.329.124v3.208l-.459.044-.337.03-.168-.17a6.28 6.28 0 0 0-4.55-1.4 6.2 6.2 0 0 0-3.854.936 3.52 3.52 0 0 0-1.166 2.984 3.77 3.77 0 0 0 1.233 3.1 5.5 5.5 0 0 0 3.563 1.005z"/><path fill="#002581" d="m56.197 47.126-.219-.152v-4.025l.398-.086.527-.11.19.301a5.75 5.75 0 0 0 2.112 1.857 5.7 5.7 0 0 0 2.735.627 4.8 4.8 0 0 0 3.315-1.018 5.62 5.62 0 0 0 1.416-4.382v-8.822h4.823v.51c0 2.066.35 3.033.918 3.489 1.02.56 2.192.777 3.343.62h3.37a6 6 0 0 1-.018-.51 6.9 6.9 0 0 1 .636-3.132 6.85 6.85 0 0 1 1.976-2.502 9.16 9.16 0 0 1 5.616-1.78 9.2 9.2 0 0 1 5.6 1.758 6.8 6.8 0 0 1 1.984 2.489 6.8 6.8 0 0 1 .636 3.127c0 .186 0 .37-.019.546h4.247c1.653 0 2.083-.34 2.595-1.018a7.07 7.07 0 0 0 .78-4.072V14.996h4.825v15.733a10 10 0 0 1-1.434 5.852 6.84 6.84 0 0 1-2.487 1.964c-.97.45-2.032.665-3.099.628l-.014.024h-6.43a8.25 8.25 0 0 1-3.14 2.714 8.2 8.2 0 0 1-4.056.835 8.2 8.2 0 0 1-4.072-.828 8.26 8.26 0 0 1-3.154-2.721h-4.958l-.015-.014a13.4 13.4 0 0 1-3.622-.524v2.036a7.3 7.3 0 0 1-.685 3.294 7.3 7.3 0 0 1-2.085 2.632 10.15 10.15 0 0 1-6.293 1.983 12.55 12.55 0 0 1-6.235-1.486zm30.684-7.263a2.8 2.8 0 0 0 1.46-.262 2.83 2.83 0 0 0 1.127-.971 6 6 0 0 0 .72-3.198 6.1 6.1 0 0 0-.757-3.244 2.8 2.8 0 0 0-1.104-.986 2.8 2.8 0 0 0-1.448-.285 2.74 2.74 0 0 0-2.527 1.253 6.05 6.05 0 0 0-.733 3.223 6.13 6.13 0 0 0 .704 3.223c.273.422.655.761 1.105.981s.95.312 1.448.266zM9.32 43.54a2.56 2.56 0 0 1 .807-1.777 2.53 2.53 0 0 1 1.818-.683 2.54 2.54 0 0 1 1.821.682c.493.462.785 1.1.812 1.778a2.57 2.57 0 0 1-.812 1.776 2.53 2.53 0 0 1-1.82.682 2.53 2.53 0 0 1-1.818-.683 2.56 2.56 0 0 1-.808-1.775m6.208 0a2.57 2.57 0 0 1 .81-1.777 2.53 2.53 0 0 1 1.819-.683 2.53 2.53 0 0 1 1.818.684c.492.46.783 1.1.81 1.776a2.57 2.57 0 0 1-.81 1.775 2.53 2.53 0 0 1-1.818.683 2.53 2.53 0 0 1-1.819-.683 2.57 2.57 0 0 1-.81-1.775"/><path fill="#00a1ed" d="M58.386 17.05a27 27 0 0 0-.953-.689c-.262-.183-.532-.36-.807-.54q-.532-.339-1.087-.67-.403-.232-.824-.464-.569-.311-1.164-.613a45 45 0 0 1-.703-.35h-.015c-.416-.203-.843-.396-1.267-.59h.011a94.8 94.8 0 0 0-20.631-6.107 6.84 6.84 0 0 0-3.689.432 6.9 6.9 0 0 0-2.927 2.3c-.49.719-.117 1.241.529 1.258 20.896-.032 30.133 4.807 32.627 6.405z"/><path fill="#009d3a" d="M88.73 2.082a62 62 0 0 0-5.056-.983c-18.157 4.15-28.518 11.723-30.13 12.977.397.199.785.406 1.164.613C67.52 5.729 85.653 2.56 88.73 2.082"/><path fill="#33a437" d="M97.346 4.864a52 52 0 0 0-5.633-1.983C67.793 7.12 56.818 14.247 55.54 15.153q.555.33 1.087.67c17.516-8.811 39.42-10.847 40.72-10.96"/><path fill="#00a1ed" d="M52.772.575a3.28 3.28 0 0 0-3.623-.071c-.32.149-.29.38.04.653a49.7 49.7 0 0 1 7.543 7.746c.35-.253.708-.509 1.072-.75A33.8 33.8 0 0 0 52.772.575m-6.284 1.069a4.64 4.64 0 0 0-5.206.373c-.337.31-.285.528.133.713a84 84 0 0 1 13.519 7.518q.464-.369.952-.73a65 65 0 0 0-9.398-7.874M37.974 3.55a4.75 4.75 0 0 0-4.484 1.178c-.356.372-.182.655.398.79a63.2 63.2 0 0 1 18.781 6.597q.56-.495 1.161-.99a96 96 0 0 0-15.856-7.576"/><path fill="#00973d" d="M57.807 8.153A60.7 60.7 0 0 1 74.22.18a66 66 0 0 1 6.603.388C78.888.838 66.9 2.931 52.835 13.713c-.416-.204-.842-.397-1.267-.59q.531-.51 1.11-1.018.58-.51 1.162-.991c.357-.292.718-.586 1.098-.876q.465-.37.953-.73c.278-.206.562-.41.842-.613q.528-.369 1.075-.742"/><path fill="#54ab34" d="M58.385 17.05a116.1 116.1 0 0 1 48.414-6.396 38.7 38.7 0 0 0-6.717-4.34C74.076 8.7 59.263 15.476 57.432 16.361q.489.34.941.679z"/><path fill="#002581" d="M1.4 19.717a1.39 1.39 0 0 1 1.21.697 1.44 1.44 0 0 1 0 1.427 1.382 1.382 0 0 1-1.215.7 1.36 1.36 0 0 1-.704-.19 1.35 1.35 0 0 1-.506-.51 1.4 1.4 0 0 1-.19-.712 1.41 1.41 0 0 1 .696-1.224c.215-.126.46-.19.71-.188m0 .17a1.22 1.22 0 0 0-1.135.765 1.25 1.25 0 0 0 .268 1.35 1.227 1.227 0 0 0 2.1-.877 1.25 1.25 0 0 0-.362-.876 1.23 1.23 0 0 0-.87-.362m-.603.415h.583a.55.55 0 0 1 .454.189.57.57 0 0 1 .12.375.45.45 0 0 1-.259.419l.315.587-.109.086H1.77l-.303-.599h-.43v.6h-.24zm.575.253h-.337v.547h.364a.3.3 0 0 0 .219-.073.3.3 0 0 0 .084-.221.3.3 0 0 0-.037-.148.34.34 0 0 0-.293-.105M119.6 50.28a1.404 1.404 0 0 1 1.4 1.412 1.41 1.41 0 0 1-.696 1.221 1.4 1.4 0 0 1-.707.192 1.36 1.36 0 0 1-.705-.192 1.35 1.35 0 0 1-.505-.509 1.4 1.4 0 0 1-.191-.712 1.4 1.4 0 0 1 .191-.715 1.38 1.38 0 0 1 1.213-.697m0 .17a1.23 1.23 0 0 0-.781.28 1.24 1.24 0 0 0-.305 1.542 1.223 1.223 0 0 0 2.108.105 1.244 1.244 0 0 0-.55-1.836 1.2 1.2 0 0 0-.472-.091m-.603.415h.583a.55.55 0 0 1 .453.189c.084.106.127.24.121.375a.43.43 0 0 1-.066.25.44.44 0 0 1-.193.169l.317.587-.11.084h-.133l-.303-.598h-.43v.599h-.239zm.574.253h-.337v.546h.364a.3.3 0 0 0 .219-.072.3.3 0 0 0 .085-.22.3.3 0 0 0-.037-.149.33.33 0 0 0-.135-.087.33.33 0 0 0-.159-.018"/></g><defs><clipPath id="a"><path fill="#fff" d="M0 0h121v73H0z"/></clipPath></defs></svg>