<svg width="121" height="73" viewBox="0 0 121 73" fill="none" xmlns="http://www.w3.org/2000/svg">
<g clip-path="url(#clip0_1_1394)">
<path d="M31.1786 72.9677L31.0707 72.9474C30.0247 72.7946 29.0788 72.2379 28.4334 71.3953C27.788 70.5527 27.4936 69.4902 27.6127 68.4329C27.6114 68.4143 27.6114 68.3956 27.6127 68.3769V50.4106H31.6285V67.9104C31.7145 69.7223 31.9453 69.8597 32.9682 70.0802L33.7873 70.1888L31.4853 72.8065L31.3168 73L31.1718 72.9677H31.1786Z" fill="#002581"/>
<path d="M55.7306 60.3115C53.9168 60.2564 52.1317 60.7769 50.6279 61.7993V72.4501H46.5835V62.5763C46.5822 62.5645 46.5822 62.5525 46.5835 62.5407C46.5835 61.4855 46.4065 60.968 46.2009 60.7695C46.0227 60.6078 45.8137 60.4844 45.5865 60.4068C45.3593 60.3292 45.1188 60.2991 44.8797 60.3182C43.0738 60.2673 41.2974 60.7876 39.8006 61.8061V72.4569H35.7561V57.6784H39.8006V58.8932C41.4549 57.9155 43.3207 57.3577 45.237 57.2679H45.2639C46.1356 57.2421 46.9997 57.4383 47.776 57.8384C48.5522 58.2385 49.2155 58.8295 49.7044 59.5565C51.5903 58.2062 53.8136 57.4135 56.1233 57.2679C57.7689 57.2268 59.3686 57.8162 60.5992 58.9169C61.6579 60.3787 62.1188 62.1939 61.8866 63.9878V72.4569H57.49V62.5526C57.49 61.4855 57.3215 60.9714 57.1007 60.7695C56.918 60.6064 56.7043 60.4821 56.4727 60.4042C56.241 60.3264 55.996 60.2965 55.7526 60.3165" fill="#002581"/>
<path d="M71.1059 72.8948H71.0925C70.1776 72.9237 69.2661 72.7688 68.4114 72.439C67.5567 72.1093 66.7758 71.6114 66.1144 70.9744C65.412 70.214 64.8682 69.3196 64.5151 68.344C64.162 67.3684 64.0067 66.3314 64.0585 65.2944V65.2723C63.9877 64.116 64.1785 62.9585 64.6163 61.8871C65.0541 60.8157 65.7277 59.8583 66.5862 59.0868C68.2945 57.7859 70.4001 57.1259 72.54 57.2206C75.1064 57.2513 77.6359 57.8404 79.9548 58.9477L80.1032 59.0155V72.447H76.0435V70.9981C74.7112 72.2468 72.9495 72.9262 71.1295 72.8931H71.1059V72.8948ZM72.2856 60.1098C69.7376 60.1098 68.4096 62.0981 68.3675 64.9839C68.3978 67.7289 69.9415 69.5086 72.0749 69.5103C73.4885 69.4889 74.8646 69.0494 76.0317 68.2463V60.7816C74.8312 60.3528 73.5694 60.1236 72.2957 60.103H72.2822L72.2856 60.1098Z" fill="#002581"/>
<path d="M21.5757 72.4503L13.5526 55.7004L9.40698 64.295H17.3088L17.1942 64.6343C16.8336 65.6709 16.596 66.3427 16.0146 66.682C15.2671 66.9617 14.4648 67.0611 13.6722 66.9722H8.11108L5.47207 72.4469H1.81689L12.5364 50.5514L12.6055 50.4089H16.2826L26.6431 72.4503H21.5757Z" fill="#002581"/>
<path d="M112.095 72.4486H111.843V58.9103L115.888 57.2612V72.4486H112.095Z" fill="#002581"/>
<path d="M83.094 72.4504V57.672H87.1385V58.8595C88.7158 57.7506 90.6084 57.1879 92.5311 57.2563C92.6895 57.2563 92.8529 57.2563 93.0147 57.2563L93.3164 57.2648L92.6423 60.6578L92.3946 60.6103C91.9494 60.5324 91.4983 60.4939 91.0464 60.495C89.6683 60.4566 88.3102 60.8341 87.1469 61.5791V72.4521L83.094 72.4504Z" fill="#002581"/>
<path d="M99.9629 72.8948H99.9427C99.0288 72.923 98.1185 72.7679 97.2647 72.4385C96.4109 72.1091 95.6308 71.6119 94.9697 70.976C94.2684 70.216 93.7252 69.3224 93.3721 68.3478C93.019 67.3732 92.8632 66.3373 92.9138 65.3011C92.9126 65.2893 92.9126 65.2774 92.9138 65.2655C92.8441 64.1105 93.0353 62.9547 93.4732 61.8848C93.911 60.8149 94.584 59.8588 95.4416 59.0884C97.15 57.7867 99.2565 57.1266 101.397 57.2222C103.963 57.2527 106.493 57.8419 108.812 58.9493L108.962 59.0189V72.4486H104.909V70.9964C103.578 72.2482 101.816 72.9291 99.995 72.8948H99.9714H99.9629ZM101.143 60.1098C98.5963 60.1199 97.2666 62.0981 97.2296 64.9822C97.2599 67.7306 98.7968 69.5085 100.937 69.5102C102.351 69.4899 103.727 69.0502 104.894 68.2463V60.7816C103.694 60.3527 102.433 60.1235 101.159 60.103H101.143V60.1098Z" fill="#002581"/>
<path d="M113.825 56.5591C113.16 56.5824 112.513 56.3392 112.026 55.8828C111.539 55.4264 111.251 54.794 111.227 54.1245C111.251 53.455 111.539 52.8227 112.026 52.3663C112.513 51.9098 113.16 51.6666 113.825 51.69C114.491 51.6684 115.138 51.9119 115.626 52.3678C116.114 52.8236 116.404 53.4549 116.432 54.1245C116.404 54.7942 116.114 55.4255 115.626 55.8813C115.138 56.3371 114.491 56.5807 113.825 56.5591Z" fill="#002581"/>
<path d="M111.053 39.1712V14.9956H115.871V39.1712H111.053Z" fill="#002581"/>
<path d="M57.4862 39.1711V21.5272L62.3075 20.1377V39.1711H57.4862Z" fill="#002581"/>
<path d="M46.6856 35.9411H52.7675V39.195H33.4687C32.8645 39.2739 32.2504 39.2132 31.6728 39.0178C31.0953 38.8223 30.5696 38.4971 30.1354 38.0668C29.4059 36.9414 28.935 35.6663 28.7569 34.3345C28.2513 32.129 27.98 30.8176 27.6261 29.272C27.5113 28.4966 27.2493 27.7507 26.8543 27.075C26.5594 26.7052 26.2207 26.5304 25.3663 26.5169H24.2726L26.8762 39.2001H9.68898L9.71089 39.1577C8.70277 39.1574 7.70767 38.9284 6.79949 38.4879C5.8913 38.0473 5.09335 37.4065 4.46489 36.6129C3.36594 34.8568 2.8485 32.7951 2.98698 30.7242V27.3889V27.2531L3.05607 27.1344C4.20845 25.2481 5.50431 23.4546 6.93201 21.77L7.8201 20.73V31.1891C7.65021 32.5321 7.92315 33.8941 8.59697 35.0657C9.09242 35.6713 9.98894 35.9428 11.6623 35.9428H21.519L18.9912 23.3121H25.5011C28.8445 23.2917 30.5567 25.7432 31.1869 28.7919C31.5476 30.4426 32.0396 32.6176 32.2806 33.6881C32.3613 34.3846 32.5578 35.0625 32.862 35.6934C32.9631 35.8427 33.2429 35.9428 34.2355 35.9428H38.8714C38.2891 35.443 37.8266 34.8172 37.5184 34.1121C37.2103 33.407 37.0644 32.6409 37.0919 31.8711C37.0951 30.7995 37.3948 29.7499 37.9573 28.8401C38.5199 27.9304 39.3231 27.1964 40.2769 26.7204C42.341 25.6646 44.6341 25.1439 46.9485 25.2054C48.6997 25.1875 50.4402 25.481 52.09 26.0724L52.4186 26.1962V28.9395V29.4043L51.9603 29.4484L51.6232 29.4773L51.4547 29.3076C50.1778 28.2607 48.5447 27.7584 46.9047 27.908C45.553 27.7897 44.1999 28.1185 43.0507 28.8445C42.6337 29.212 42.3102 29.6747 42.1073 30.1939C41.9045 30.7131 41.828 31.2737 41.8845 31.8287C41.8379 32.4062 41.925 32.9867 42.1391 33.5246C42.3531 34.0624 42.6883 34.5429 43.1181 34.9282C44.1562 35.664 45.4138 36.0186 46.6806 35.9326L46.6856 35.9411Z" fill="#002581"/>
<path d="M56.1972 47.1262L55.9781 46.9735V42.9493L56.3759 42.8628L56.9033 42.7525L57.0921 43.0545C57.6331 43.8399 58.3592 44.4779 59.2054 44.9113C60.0515 45.3448 60.9912 45.5602 61.9404 45.5382C63.1325 45.6252 64.3142 45.2624 65.2551 44.5203C65.7872 43.9333 66.1887 43.2388 66.4328 42.4831C66.6769 41.7274 66.758 40.928 66.6707 40.1382V31.8252V31.3162H71.4937V31.8252C71.4937 33.8916 71.8442 34.8586 72.4121 35.315C73.4324 35.8752 74.604 36.0922 75.7555 35.9342H79.1259C79.1124 35.7645 79.1074 35.5949 79.1074 35.4252C79.0709 34.3453 79.2885 33.272 79.7425 32.2929C80.1964 31.3137 80.8738 30.4565 81.7194 29.791C83.347 28.5948 85.3197 27.9696 87.3345 28.0114C89.3411 27.9698 91.3067 28.5867 92.9344 29.769C93.7832 30.4279 94.4636 31.281 94.9194 32.2576C95.3751 33.2342 95.593 34.3062 95.5548 35.3845C95.5548 35.5711 95.5549 35.7544 95.5363 35.9308H99.783C101.436 35.9308 101.866 35.5915 102.378 34.9129C103.039 33.6656 103.311 32.2465 103.158 30.8412V14.9956H107.983V30.7292C108.116 32.7819 107.615 34.8259 106.549 36.5806C105.884 37.4221 105.032 38.0949 104.062 38.5451C103.092 38.9953 102.03 39.2103 100.963 39.1729L100.949 39.1966H94.5185C93.7183 40.3559 92.6374 41.2903 91.3781 41.9114C90.1189 42.5325 88.723 42.8197 87.3227 42.7458C85.9174 42.8245 84.5156 42.5397 83.2506 41.9184C81.9857 41.2971 80.8999 40.3601 80.0966 39.1966H75.1388L75.1236 39.183C73.8984 39.175 72.68 38.9986 71.5021 38.6588V40.6946C71.5328 41.8317 71.2982 42.9602 70.817 43.9894C70.3358 45.0185 69.6216 45.9198 68.7317 46.6206C66.9102 47.9649 64.697 48.6625 62.4392 48.6039C60.2684 48.6569 58.1207 48.145 56.204 47.1177L56.1972 47.1262ZM86.8812 39.8634C87.3824 39.9082 87.8864 39.8175 88.3411 39.6007C88.7959 39.3839 89.1849 39.0488 89.4679 38.63C90.0003 37.6528 90.2496 36.5448 90.1875 35.432C90.2416 34.3008 89.9795 33.177 89.4309 32.1882C89.1571 31.7663 88.776 31.426 88.3274 31.2025C87.8787 30.979 87.3787 30.8806 86.8795 30.9175C86.3852 30.8774 85.8892 30.9726 85.4443 31.193C84.9993 31.4134 84.6218 31.7508 84.3517 32.1696C83.8132 33.1541 83.5593 34.2707 83.6186 35.393C83.5546 36.5122 83.7984 37.6276 84.3231 38.6164C84.5958 39.0382 84.9776 39.3773 85.4275 39.597C85.8773 39.8167 86.3782 39.9088 86.8761 39.8634H86.8812Z" fill="#002581"/>
<path d="M9.3197 43.5397C9.34473 42.8633 9.63518 42.2245 10.1274 41.7633C10.6195 41.3022 11.2733 41.0563 11.9452 41.0797C12.618 41.0559 13.2727 41.3013 13.766 41.7624C14.2594 42.2235 14.5512 42.8625 14.5775 43.5397C14.5512 44.2167 14.2593 44.8556 13.7659 45.3164C13.2725 45.7772 12.6178 46.0223 11.9452 45.998C11.2736 46.0213 10.6201 45.7757 10.1279 45.315C9.63581 44.8542 9.34517 44.2158 9.3197 43.5397Z" fill="#002581"/>
<path d="M15.5281 43.5396C15.554 42.8629 15.8452 42.2241 16.3379 41.7631C16.8306 41.302 17.4847 41.0563 18.157 41.0797C18.829 41.0567 19.4826 41.3027 19.975 41.7637C20.4673 42.2247 20.7583 42.8632 20.7842 43.5396C20.7583 44.2159 20.4673 44.8543 19.9749 45.315C19.4825 45.7757 18.8288 46.0213 18.157 45.9979C17.485 46.0213 16.8311 45.7758 16.3385 45.3151C15.8458 44.8544 15.5544 44.216 15.5281 43.5396Z" fill="#002581"/>
<path d="M58.3856 17.0501C58.0823 16.8211 57.7587 16.5853 57.4335 16.3613C57.1706 16.1781 56.901 16.0017 56.6263 15.8218C56.2724 15.5945 55.9084 15.3722 55.5393 15.1517C55.2697 14.9973 54.9967 14.8412 54.7153 14.6868C54.3361 14.4799 53.9485 14.2746 53.5508 14.0744C53.3182 13.9613 53.084 13.8448 52.8481 13.7249H52.8329C52.4167 13.5213 51.9903 13.3279 51.5657 13.1345H51.5775C44.9512 10.3212 38.0299 8.27236 30.9457 7.02701C29.7001 6.82801 28.4242 6.97753 27.2574 7.45925C26.0906 7.94097 25.0778 8.73634 24.3296 9.75843C23.8392 10.4778 24.2133 11.0003 24.8588 11.0173C45.7551 10.985 54.9916 15.8235 57.4857 17.4217L58.3856 17.0501Z" fill="#00A1ED"/>
<path d="M88.7301 2.08165C86.9758 1.66261 85.2805 1.34536 83.6745 1.09937C65.5166 5.24908 55.1561 12.8224 53.5433 14.0761C53.941 14.2746 54.3286 14.4816 54.7078 14.6886C67.5203 5.7292 85.653 2.56008 88.7301 2.08165Z" fill="#009D3A"/>
<path d="M97.3463 4.86386C95.5077 4.09477 93.6268 3.4326 91.7127 2.88062C67.7932 7.12194 56.8175 14.2474 55.5402 15.1533C55.9092 15.3739 56.2732 15.5961 56.6271 15.8234C74.143 7.01166 96.0471 4.97583 97.3463 4.86386Z" fill="#33A437"/>
<path d="M52.7716 0.575C52.2408 0.207884 51.6146 0.00548447 50.9707 -0.00717959C50.3267 -0.0198436 49.6932 0.157784 49.1485 0.503746C48.8283 0.65304 48.8587 0.883772 49.1889 1.15691C51.9755 3.45529 54.5048 6.05276 56.7319 8.90327C57.0824 8.65048 57.4396 8.39431 57.8036 8.1534C56.4743 5.40987 54.7816 2.8605 52.7716 0.575Z" fill="#00A1ED"/>
<path d="M46.4876 1.64374C45.6816 1.17718 44.7556 0.963453 43.8282 1.02995C42.9008 1.09644 42.0143 1.44013 41.2821 2.01698C40.945 2.32744 40.9973 2.5446 41.4152 2.72952C46.1412 4.8127 50.6665 7.32967 54.9338 10.2485C55.2422 10.0025 55.5624 9.75824 55.886 9.51734C53.0061 6.60111 49.8594 3.9649 46.4876 1.64374Z" fill="#00A1ED"/>
<path d="M37.9742 3.54911C37.1888 3.34705 36.3652 3.34925 35.5808 3.55549C34.7964 3.76174 34.077 4.16527 33.49 4.72819C33.1344 5.09973 33.308 5.38306 33.8877 5.51878C40.4537 6.70972 46.792 8.93577 52.6691 12.1149C53.0421 11.7846 53.4291 11.4544 53.8302 11.1241C48.7849 8.1186 43.4775 5.58307 37.9742 3.54911Z" fill="#00A1ED"/>
<path d="M57.8073 8.15338C62.8494 4.68115 68.3821 1.99311 74.2193 0.179688C75.8051 0.189867 78.0953 0.272997 80.8219 0.568193C78.8873 0.837941 66.8989 2.93146 52.8343 13.7129C52.418 13.5093 51.9917 13.3159 51.567 13.1225C51.9209 12.7832 52.2911 12.4439 52.6776 12.1046C53.064 11.7653 53.451 11.435 53.8386 11.1138C54.1959 10.822 54.5565 10.5285 54.9374 10.2384C55.2458 9.99242 55.566 9.74812 55.8895 9.50721C56.1676 9.30193 56.4524 9.09835 56.7321 8.89477C57.0843 8.65047 57.4416 8.40107 57.8073 8.15338Z" fill="#00973D"/>
<path d="M58.3852 17.0501C73.8952 11.5075 90.3937 9.32794 106.799 10.6542C104.714 8.97869 102.463 7.5244 100.082 6.31445C74.076 8.69977 59.2632 15.4757 57.4314 16.3613C57.7572 16.5875 58.0712 16.8137 58.3734 17.0399L58.3852 17.0501Z" fill="#54AB34"/>
<path d="M1.40047 19.7171C1.6451 19.7167 1.88559 19.7808 2.0979 19.9032C2.31021 20.0255 2.48694 20.2018 2.61044 20.4144C2.73501 20.6316 2.80068 20.8779 2.80086 21.1286C2.8011 21.3789 2.7354 21.6248 2.61044 21.8412C2.49049 22.0536 2.31582 22.2294 2.10487 22.3501C1.88977 22.477 1.64471 22.5432 1.39541 22.5419C1.14769 22.5434 0.904211 22.4771 0.691006 22.3501C0.480059 22.2294 0.305392 22.0536 0.185444 21.8412C0.0593385 21.6253 -0.00645541 21.3791 -0.00498062 21.1286C-0.00601157 20.8777 0.0597408 20.6311 0.185444 20.4144C0.305392 20.202 0.480059 20.0262 0.691006 19.9054C0.906286 19.7794 1.15143 19.7143 1.40047 19.7171ZM1.40047 19.8868C1.15723 19.8871 0.919554 19.96 0.717472 20.0963C0.515391 20.2326 0.357977 20.4262 0.265125 20.6525C0.172273 20.8788 0.14815 21.1278 0.195807 21.3679C0.243464 21.608 0.36076 21.8285 0.532872 22.0016C0.704983 22.1746 0.924186 22.2924 1.16277 22.34C1.40136 22.3877 1.64862 22.3631 1.87331 22.2693C2.098 22.1755 2.29004 22.0168 2.42514 21.8131C2.56024 21.6095 2.63234 21.3701 2.63234 21.1253C2.63234 20.9625 2.60047 20.8013 2.53854 20.6509C2.47661 20.5006 2.38584 20.3639 2.27143 20.2489C2.15702 20.1339 2.02121 20.0427 1.87176 19.9806C1.72231 19.9184 1.56216 19.8866 1.40047 19.8868ZM0.797172 20.3024H1.38024C1.46514 20.2962 1.55032 20.31 1.62901 20.3427C1.7077 20.3754 1.77773 20.4261 1.83356 20.4907C1.91716 20.5971 1.9602 20.7301 1.9549 20.8657C1.95787 20.9536 1.93477 21.0404 1.88855 21.115C1.84233 21.1896 1.77508 21.2487 1.69537 21.2847L2.0105 21.8717L1.90097 21.9582H1.76784L1.46451 21.3594H1.03478V21.9582H0.795488L0.797172 20.3024ZM1.37182 20.5552H1.03478V21.1015H1.39878C1.47846 21.1068 1.55705 21.0807 1.61786 21.0286C1.64607 20.9995 1.66809 20.9649 1.68258 20.927C1.69707 20.8891 1.70372 20.8486 1.70212 20.808C1.70381 20.7563 1.69096 20.7051 1.66504 20.6604C1.62817 20.6204 1.58226 20.59 1.53122 20.5717C1.48017 20.5534 1.4255 20.5477 1.37182 20.5552Z" fill="#002581"/>
<path d="M119.6 50.2801C119.845 50.2796 120.085 50.3438 120.297 50.4661C120.51 50.5885 120.686 50.7648 120.81 50.9774C120.935 51.1945 121 51.4408 121 51.6916C121.001 51.9419 120.935 52.1879 120.81 52.4041C120.69 52.6165 120.515 52.7924 120.304 52.9131C120.09 53.0398 119.845 53.106 119.597 53.1048C119.349 53.1064 119.105 53.0401 118.892 52.9131C118.681 52.7924 118.507 52.6165 118.387 52.4041C118.261 52.1882 118.195 51.942 118.196 51.6916C118.195 51.4407 118.261 51.1942 118.387 50.9774C118.507 50.765 118.681 50.5892 118.892 50.4684C119.107 50.3427 119.352 50.2777 119.6 50.2801ZM119.6 50.4498C119.315 50.4496 119.039 50.5488 118.819 50.7305C118.599 50.9121 118.449 51.165 118.393 51.446C118.337 51.727 118.38 52.0188 118.514 52.2715C118.648 52.5243 118.865 52.7224 119.128 52.8322C119.391 52.942 119.684 52.9566 119.956 52.8735C120.228 52.7904 120.464 52.6149 120.622 52.3767C120.78 52.1385 120.851 51.8525 120.824 51.5673C120.796 51.2821 120.671 51.0155 120.47 50.8128C120.357 50.6957 120.222 50.6033 120.072 50.5411C119.922 50.4789 119.762 50.4467 119.6 50.4498ZM118.997 50.8654H119.58C119.665 50.8592 119.75 50.8729 119.829 50.9056C119.907 50.9383 119.977 50.989 120.033 51.0537C120.117 51.1601 120.16 51.2931 120.154 51.4286C120.158 51.5166 120.135 51.6035 120.088 51.6781C120.042 51.7528 119.975 51.8119 119.895 51.8477L120.212 52.4347L120.102 52.5195H119.969L119.666 51.9206H119.236V52.5195H118.997V50.8654ZM119.571 51.1182H119.234V51.6645H119.598C119.678 51.67 119.757 51.6438 119.817 51.5915C119.846 51.5624 119.868 51.5279 119.882 51.49C119.897 51.4521 119.903 51.4116 119.902 51.371C119.903 51.3193 119.89 51.2682 119.865 51.2234C119.828 51.1837 119.782 51.1536 119.73 51.1356C119.679 51.1176 119.625 51.1105 119.571 51.1182Z" fill="#002581"/>
</g>
<defs>
<clipPath id="clip0_1_1394">
<rect width="121" height="73" fill="white"/>
</clipPath>
</defs>
</svg>
