<svg xmlns="http://www.w3.org/2000/svg" width="173" height="60" fill="none" viewBox="0 0 173 60"><rect width="172.174" height="60" fill="#fff" rx="12" transform="matrix(-1 0 0 1 172.174 0)"/><path fill="#213b58" d="M38.62 31.606a6.7 6.7 0 0 1 .91-3.277c.58-1 1.412-1.84 2.415-2.443a7.1 7.1 0 0 0-2.456-2.136 7.3 7.3 0 0 0-3.176-.837c-2.37-.242-4.667 1.385-5.874 1.385-1.23 0-3.09-1.36-5.092-1.32a7.6 7.6 0 0 0-3.663 1.067 7.4 7.4 0 0 0-2.649 2.69c-2.729 4.614-.693 11.393 1.921 15.122 1.308 1.826 2.837 3.866 4.837 3.793 1.957-.079 2.688-1.218 5.05-1.218 2.341 0 3.027 1.218 5.068 1.172 2.1-.033 3.423-1.834 4.686-3.677a15 15 0 0 0 2.142-4.26 6.7 6.7 0 0 1-2.994-2.425 6.5 6.5 0 0 1-1.125-3.636m-3.855-11.145a6.6 6.6 0 0 0 1.573-4.809 7.05 7.05 0 0 0-4.526 2.287 6.4 6.4 0 0 0-1.28 2.158 6.2 6.2 0 0 0-.334 2.473 5.9 5.9 0 0 0 2.532-.542 5.8 5.8 0 0 0 2.035-1.567m28.701-1.886q0 1.408-.529 2.36a3.4 3.4 0 0 1-1.526 1.431q-.985.482-2.383.482h-2.347v-8.382h2.594q1.28 0 2.219.47a3.36 3.36 0 0 1 1.455 1.385q.517.903.517 2.254m-1.327.035q0-1.056-.34-1.738a2.18 2.18 0 0 0-1.01-1.01q-.657-.328-1.596-.328h-1.245v6.245h1.022q1.585 0 2.371-.798.798-.799.798-2.371m8.586 1.068q0 .786-.211 1.397-.211.61-.599 1.033a2.55 2.55 0 0 1-.939.646q-.551.21-1.244.211-.634 0-1.174-.211a2.7 2.7 0 0 1-.94-.646 3.1 3.1 0 0 1-.61-1.033q-.222-.61-.223-1.409 0-1.044.352-1.772a2.5 2.5 0 0 1 1.033-1.104q.68-.387 1.597-.387.87 0 1.526.387.669.376 1.045 1.104.387.728.387 1.784m-4.66 0q0 .705.176 1.221.176.505.552.775.374.27.962.27.587 0 .963-.27.375-.27.552-.775.176-.516.176-1.22 0-.729-.188-1.222a1.5 1.5 0 0 0-.552-.751q-.364-.27-.963-.27-.88 0-1.28.587-.398.587-.398 1.655m10.281 0q-.059-.235-.14-.516l-.141-.564-.223-.927h-.047a6 6 0 0 1-.082.387q-.047.246-.118.54-.07.282-.14.575-.072.282-.153.517l-.94 3.146h-1.385l-1.749-6.327h1.268l.822 3.204q.093.33.164.693.083.363.14.704.072.33.095.552h.047q.024-.153.07-.376.047-.234.094-.481.06-.258.106-.493.058-.235.117-.387l1.01-3.416h1.361l.987 3.416a13 13 0 0 1 .293 1.197q.07.306.094.528h.047q.024-.2.082-.516.06-.33.141-.705.094-.375.176-.716l.845-3.204h1.256l-1.772 6.327h-1.42zm8.401-3.275q1.105 0 1.69.552.588.55.588 1.772v4.12h-1.233v-3.944q0-.739-.317-1.103-.305-.376-.986-.376-.963 0-1.338.575-.364.576-.364 1.656v3.193h-1.244V16.52h.986l.176.846h.07q.211-.33.517-.54.305-.212.68-.317.377-.106.775-.106m5.434 6.445h-1.244v-8.922h1.244zm7.53-3.17q0 .786-.21 1.397-.212.61-.6 1.033a2.55 2.55 0 0 1-.939.646q-.551.21-1.244.211-.634 0-1.174-.211a2.7 2.7 0 0 1-.94-.646 3.1 3.1 0 0 1-.61-1.033q-.222-.61-.223-1.409 0-1.044.353-1.772a2.5 2.5 0 0 1 1.033-1.104q.681-.387 1.596-.387.87 0 1.526.387.67.376 1.045 1.104.387.728.387 1.784m-4.66 0q0 .705.176 1.221.175.505.552.775.375.27.962.27.588 0 .963-.27t.552-.775q.176-.516.176-1.22 0-.729-.188-1.222a1.5 1.5 0 0 0-.552-.751q-.363-.27-.962-.27-.88 0-1.28.587-.399.587-.399 1.655m8.691-3.275q1.198 0 1.785.528.587.517.587 1.632v4.285h-.881l-.246-.88h-.047q-.27.34-.564.563a1.9 1.9 0 0 1-.657.328q-.364.105-.892.106-.564 0-1.022-.2a1.6 1.6 0 0 1-.704-.633q-.258-.435-.258-1.08 0-.963.728-1.468.74-.504 2.242-.552l1.08-.035v-.352q0-.704-.317-.986t-.892-.282q-.494 0-.939.141a6 6 0 0 0-.846.34l-.399-.903a5 5 0 0 1 1.021-.388q.588-.165 1.221-.164m.294 3.428q-1.08.046-1.503.364-.411.305-.411.868 0 .494.294.716.305.224.763.223.74 0 1.221-.41.481-.411.481-1.233v-.552zm6.165 3.134q-1.138 0-1.843-.822-.692-.82-.692-2.441 0-1.632.704-2.466.705-.833 1.855-.833.482 0 .833.129.364.117.623.329.27.21.457.47h.071q-.023-.165-.059-.47a5 5 0 0 1-.035-.564v-2.371h1.244v8.922h-.974l-.211-.846h-.059q-.176.27-.446.494-.258.21-.622.34a2.5 2.5 0 0 1-.846.129m.294-1.021q.915 0 1.291-.505.376-.516.376-1.538v-.188q0-1.114-.364-1.702-.352-.587-1.315-.587-.762 0-1.15.622-.387.61-.388 1.679 0 1.068.388 1.643.387.576 1.162.576m14.38-2.266q0 .786-.211 1.397a2.9 2.9 0 0 1-.599 1.033 2.55 2.55 0 0 1-.939.646 3.5 3.5 0 0 1-1.245.211 3.2 3.2 0 0 1-1.173-.211 2.7 2.7 0 0 1-.94-.646 3.1 3.1 0 0 1-.61-1.033q-.223-.61-.223-1.409 0-1.044.352-1.772a2.5 2.5 0 0 1 1.033-1.104q.68-.387 1.597-.387.868 0 1.526.387.669.376 1.045 1.104.387.728.387 1.784m-4.661 0q0 .705.177 1.221.176.505.551.775.377.27.963.27.587 0 .963-.27.375-.27.551-.775.176-.516.176-1.22 0-.729-.187-1.222a1.5 1.5 0 0 0-.552-.751q-.364-.27-.963-.27-.88 0-1.279.587-.4.587-.4 1.655m9.443-3.275q1.103 0 1.691.552.587.55.587 1.772v4.12h-1.233v-3.944q0-.739-.317-1.103-.305-.376-.986-.376-.963 0-1.338.575-.364.576-.364 1.656v3.193h-1.245V16.52h.986l.177.846h.07a1.9 1.9 0 0 1 .516-.54q.306-.212.681-.317t.775-.106m10.456 5.553q.247 0 .505-.047.258-.048.446-.106v.939a2.2 2.2 0 0 1-.54.153 3.4 3.4 0 0 1-.681.07q-.516 0-.95-.176a1.42 1.42 0 0 1-.681-.61q-.258-.435-.259-1.21v-3.498h-.88v-.563l.927-.47.435-1.338h.763v1.42h1.808v.951h-1.808v3.475q0 .517.246.763.26.246.669.247m3.461-5.647q0 .294-.023.587-.024.294-.047.481h.082q.2-.329.493-.54.306-.21.669-.317.376-.105.763-.105.752 0 1.256.246.517.235.775.751.27.505.27 1.315v4.12h-1.232v-3.944q0-.739-.317-1.103-.306-.376-.986-.376-.646 0-1.022.258-.363.259-.528.764-.153.492-.153 1.22v3.182h-1.244v-8.922h1.244zm8.639.094q.834 0 1.432.352.598.34.916.986.328.646.328 1.526v.681h-4.249q.024.975.505 1.491.492.517 1.373.517.61 0 1.08-.106.482-.117.986-.34v1.032q-.47.212-.962.317-.482.105-1.151.106-.915 0-1.62-.364a2.6 2.6 0 0 1-1.103-1.08q-.388-.728-.388-1.784 0-1.068.353-1.808.363-.74.997-1.127.647-.4 1.503-.4m0 .963q-.669 0-1.08.434-.4.434-.47 1.232h2.982a2.3 2.3 0 0 0-.152-.868 1.26 1.26 0 0 0-.47-.587q-.317-.212-.81-.212M57.772 46.76h-1.996l4.547-13.04h2.13l4.548 13.04h-2.112l-1.213-3.735h-4.681zm3.602-10.9h-.067l-1.844 5.637h3.745zm11.42 11.054q-.945 0-1.681-.411a3.05 3.05 0 0 1-1.156-1.118h-.067v4.834h-1.93V36.691h1.872v1.462h.067a3.2 3.2 0 0 1 1.204-1.175q.764-.44 1.748-.44 1.73 0 2.809 1.262 1.089 1.26 1.089 3.468v.907q0 2.197-1.09 3.468-1.088 1.27-2.865 1.27m-.363-1.625q1.089 0 1.729-.84.64-.85.64-2.398v-.717q0-1.51-.64-2.35-.63-.84-1.767-.84-1.166 0-1.844.869-.678.86-.678 2.312v.726q0 1.49.687 2.37.688.868 1.873.868m10.885 1.625q-.945 0-1.681-.411a3.05 3.05 0 0 1-1.156-1.118h-.067v4.834h-1.93V36.691h1.873v1.462h.066a3.2 3.2 0 0 1 1.204-1.175q.764-.44 1.748-.44 1.73 0 2.81 1.262 1.088 1.26 1.088 3.468v.907q0 2.197-1.089 3.468t-2.866 1.27m-.363-1.625q1.089 0 1.73-.84.64-.85.64-2.398v-.717q0-1.51-.64-2.35-.631-.84-1.768-.84-1.166 0-1.844.869-.678.86-.678 2.312v.726q0 1.49.688 2.37.687.868 1.872.868m8.434-2.11h1.94q.095.945.888 1.566.792.621 2.159.621 1.298 0 2.054-.573.755-.583.755-1.567 0-.764-.507-1.223-.497-.458-1.586-.726l-2.197-.554a5.8 5.8 0 0 1-1.185-.43 4.7 4.7 0 0 1-.993-.669 2.9 2.9 0 0 1-.707-1.012 3.6 3.6 0 0 1-.248-1.366q0-1.195.65-2.073a3.97 3.97 0 0 1 1.69-1.319q1.041-.43 2.293-.43 1.233 0 2.254.42 1.023.411 1.682 1.28.658.87.678 2.064h-1.901a2.17 2.17 0 0 0-.793-1.519q-.698-.592-1.949-.592-1.185 0-1.91.545-.717.535-.717 1.48 0 1.376 1.825 1.816l2.178.554q.621.153 1.118.353.496.2.936.506.449.297.735.679.297.372.469.898.171.516.172 1.156 0 1.872-1.386 2.923-1.376 1.041-3.582 1.041-1.023 0-1.853-.239-.832-.229-1.367-.611a3.8 3.8 0 0 1-.898-.889 3.7 3.7 0 0 1-.525-1.04 4.4 4.4 0 0 1-.172-1.07m12.27-6.488v-2.483h1.901v2.483h1.978v1.567h-1.978v5.58q0 .85.344 1.155.345.297 1.242.296.192 0 .459-.019v1.5a5.6 5.6 0 0 1-.936.067q-.908 0-1.5-.162-.583-.172-.927-.545a2.1 2.1 0 0 1-.468-.888q-.134-.526-.134-1.309v-5.675h-1.375V36.69zm9.491-.171q2.083 0 3.238 1.327 1.166 1.32 1.166 3.43v.85q0 2.16-1.156 3.487-1.156 1.32-3.248 1.319-2.102 0-3.267-1.319-1.166-1.327-1.166-3.487v-.84q0-2.111 1.166-3.44 1.175-1.327 3.267-1.327m1.824 2.455q-.64-.87-1.834-.87t-1.844.87q-.64.87-.64 2.35v.774q0 1.47.64 2.35.65.879 1.844.879 1.204 0 1.834-.87.64-.878.641-2.36v-.773q0-1.48-.641-2.35m4.294 7.786V36.69h1.93v1.28h.066q.25-.562.86-.993.621-.44 1.577-.44.343 0 .678.048v1.73q-.267-.058-.86-.058-2.302 0-2.302 2.427v6.076zm10.111.172q-2.006 0-3.172-1.27-1.165-1.28-1.165-3.478v-1.06q0-2.093 1.137-3.344 1.146-1.261 3.124-1.261 1.977 0 3.105 1.29 1.136 1.28 1.136 3.41v.955h-6.582v.21q0 1.347.659 2.169.67.822 1.796.822.821 0 1.367-.383a2 2 0 0 0 .773-1.07h1.863a3.66 3.66 0 0 1-1.309 2.169q-1.03.84-2.732.84m-2.417-6.172h4.681v-.028q0-1.148-.649-1.911-.65-.764-1.682-.764-1.05 0-1.7.764t-.65 1.91z"/></svg>