<svg width="173" height="60" viewBox="0 0 173 60" fill="none" xmlns="http://www.w3.org/2000/svg">
<rect width="172.174" height="60" rx="12" transform="matrix(-1 0 0 1 172.174 0)" fill="white"/>
<path d="M38.6199 31.6061C38.6351 30.4562 38.9479 29.3287 39.5293 28.3286C40.1107 27.3285 40.9418 26.4882 41.9453 25.8859C41.3078 24.9971 40.4669 24.2657 39.4892 23.7497C38.5115 23.2337 37.4241 22.9473 36.3133 22.9134C33.9437 22.6705 31.6465 24.2977 30.439 24.2977C29.2081 24.2977 27.349 22.9375 25.347 22.9777C24.052 23.0185 22.79 23.3862 21.6839 24.0448C20.5777 24.7034 19.6652 25.6305 19.0352 26.7358C16.3062 31.3488 18.3418 38.1283 20.956 41.8572C22.2639 43.683 23.7926 45.7226 25.7927 45.6503C27.75 45.571 28.4811 44.4318 30.8437 44.4318C33.1844 44.4318 33.8702 45.6503 35.911 45.6043C38.0113 45.571 39.3345 43.7703 40.5966 41.9271C41.5364 40.6261 42.2595 39.1882 42.7393 37.6667C41.5191 37.1628 40.4778 36.3194 39.7452 35.2417C39.0127 34.164 38.6213 32.8995 38.6199 31.6061Z" fill="#213B58"/>
<path d="M34.7652 20.4613C35.9104 19.1191 36.4745 17.394 36.3379 15.6523C34.5884 15.8317 32.9723 16.6481 31.8117 17.9387C31.2442 18.5692 30.8096 19.3028 30.5327 20.0974C30.2557 20.8919 30.1419 21.732 30.1978 22.5696C31.0729 22.5784 31.9386 22.3932 32.7297 22.028C33.5209 21.6628 34.2168 21.1271 34.7652 20.4613Z" fill="#213B58"/>
<path d="M63.4657 18.5746C63.4657 19.5137 63.2897 20.3003 62.9375 20.9342C62.5853 21.5681 62.0766 22.0455 61.4114 22.3664C60.754 22.6872 59.9597 22.8477 59.0284 22.8477H56.6805V14.4659H59.2749C60.1279 14.4659 60.8675 14.6224 61.4936 14.9355C62.1197 15.2485 62.6049 15.7103 62.9492 16.3207C63.2936 16.9233 63.4657 17.6746 63.4657 18.5746ZM62.1392 18.6098C62.1392 17.9055 62.0257 17.3264 61.7988 16.8724C61.5718 16.4185 61.2353 16.082 60.7892 15.8629C60.351 15.6437 59.8188 15.5342 59.1927 15.5342H57.9484V21.7794H58.9697C60.0262 21.7794 60.8166 21.5133 61.341 20.9811C61.8731 20.449 62.1392 19.6585 62.1392 18.6098ZM70.7252 19.6781C70.7252 20.2024 70.6548 20.6681 70.5139 21.075C70.373 21.482 70.1735 21.8264 69.9152 22.1081C69.6569 22.3898 69.3439 22.605 68.9761 22.7537C68.6082 22.8946 68.1935 22.965 67.7317 22.965C67.3091 22.965 66.9178 22.8946 66.5578 22.7537C66.1978 22.605 65.8848 22.3898 65.6187 22.1081C65.3604 21.8264 65.1569 21.482 65.0082 21.075C64.8596 20.6681 64.7852 20.1985 64.7852 19.6664C64.7852 18.9698 64.9026 18.379 65.1374 17.8937C65.38 17.4085 65.7243 17.0407 66.1704 16.7903C66.6243 16.532 67.1565 16.4029 67.7669 16.4029C68.3461 16.4029 68.8548 16.532 69.293 16.7903C69.7391 17.0407 70.0874 17.4085 70.3378 17.8937C70.5961 18.379 70.7252 18.9737 70.7252 19.6781ZM66.0648 19.6781C66.0648 20.1477 66.1235 20.5546 66.2409 20.899C66.3582 21.2355 66.5422 21.4937 66.7926 21.6737C67.043 21.8537 67.3639 21.9437 67.7552 21.9437C68.1465 21.9437 68.4674 21.8537 68.7178 21.6737C68.9682 21.4937 69.1522 21.2355 69.2696 20.899C69.3869 20.5546 69.4456 20.1477 69.4456 19.6781C69.4456 19.1929 69.383 18.7859 69.2578 18.4572C69.1404 18.1285 68.9565 17.8781 68.7061 17.7059C68.4635 17.5259 68.1426 17.4359 67.7435 17.4359C67.1565 17.4359 66.73 17.6316 66.4639 18.0229C66.1978 18.4142 66.0648 18.9659 66.0648 19.6781ZM76.3464 19.6781C76.3073 19.5216 76.2603 19.3494 76.2055 19.1616C76.1586 18.9737 76.1116 18.7859 76.0647 18.5981C76.0177 18.4024 75.9747 18.2224 75.9355 18.0581C75.8964 17.8937 75.8651 17.7646 75.8416 17.6707H75.7947C75.779 17.7646 75.7516 17.8937 75.7125 18.0581C75.6812 18.2224 75.6421 18.4024 75.5951 18.5981C75.5482 18.7859 75.5012 18.9777 75.4542 19.1733C75.4073 19.3611 75.3564 19.5333 75.3016 19.6898L74.3625 22.8359H72.9773L71.2282 16.5085H72.496L73.3177 19.7133C73.3803 19.9324 73.4351 20.1633 73.4821 20.4059C73.5368 20.6485 73.5838 20.8833 73.6229 21.1103C73.6699 21.3294 73.7012 21.5133 73.7168 21.662H73.7638C73.7795 21.5603 73.8029 21.435 73.8342 21.2864C73.8655 21.1298 73.8968 20.9694 73.9282 20.805C73.9673 20.6329 74.0025 20.4685 74.0338 20.312C74.0729 20.1555 74.1121 20.0264 74.1512 19.9246L75.1608 16.5085H76.5225L77.5086 19.9246C77.5555 20.0811 77.6064 20.269 77.6612 20.4881C77.716 20.6994 77.7629 20.9107 77.8021 21.122C77.849 21.3255 77.8803 21.5016 77.896 21.6503H77.9429C77.9586 21.5172 77.986 21.345 78.0251 21.1337C78.0642 20.9146 78.1112 20.6798 78.166 20.4294C78.2286 20.179 78.2873 19.9403 78.3421 19.7133L79.1873 16.5085H80.4434L78.6708 22.8359H77.2503L76.3464 19.6781ZM84.7474 16.4029C85.4831 16.4029 86.0465 16.5868 86.4378 16.9546C86.8291 17.3224 87.0248 17.9133 87.0248 18.7272V22.8477H85.7922V18.9033C85.7922 18.4103 85.6865 18.0424 85.4752 17.7998C85.2718 17.5494 84.9431 17.4242 84.4891 17.4242C83.8474 17.4242 83.4013 17.6159 83.1509 17.9994C82.9083 18.3829 82.787 18.9346 82.787 19.6546V22.8477H81.5426V16.5203H82.5287L82.7048 17.3655H82.7752C82.9161 17.1464 83.0883 16.9664 83.2918 16.8255C83.4952 16.6846 83.7222 16.579 83.9726 16.5085C84.2231 16.4381 84.4813 16.4029 84.7474 16.4029ZM90.1813 22.8477H88.9369V13.9259H90.1813V22.8477ZM97.7114 19.6781C97.7114 20.2024 97.641 20.6681 97.5001 21.075C97.3593 21.482 97.1597 21.8264 96.9014 22.1081C96.6432 22.3898 96.3301 22.605 95.9623 22.7537C95.5945 22.8946 95.1797 22.965 94.718 22.965C94.2954 22.965 93.9041 22.8946 93.5441 22.7537C93.1841 22.605 92.871 22.3898 92.6049 22.1081C92.3467 21.8264 92.1432 21.482 91.9945 21.075C91.8458 20.6681 91.7714 20.1985 91.7714 19.6664C91.7714 18.9698 91.8888 18.379 92.1236 17.8937C92.3662 17.4085 92.7106 17.0407 93.1567 16.7903C93.6106 16.532 94.1427 16.4029 94.7532 16.4029C95.3323 16.4029 95.841 16.532 96.2793 16.7903C96.7254 17.0407 97.0736 17.4085 97.3241 17.8937C97.5823 18.379 97.7114 18.9737 97.7114 19.6781ZM93.051 19.6781C93.051 20.1477 93.1097 20.5546 93.2271 20.899C93.3445 21.2355 93.5284 21.4937 93.7788 21.6737C94.0293 21.8537 94.3501 21.9437 94.7414 21.9437C95.1327 21.9437 95.4536 21.8537 95.7041 21.6737C95.9545 21.4937 96.1384 21.2355 96.2558 20.899C96.3732 20.5546 96.4319 20.1477 96.4319 19.6781C96.4319 19.1929 96.3693 18.7859 96.2441 18.4572C96.1267 18.1285 95.9427 17.8781 95.6923 17.7059C95.4497 17.5259 95.1288 17.4359 94.7297 17.4359C94.1427 17.4359 93.7162 17.6316 93.4501 18.0229C93.1841 18.4142 93.051 18.9659 93.051 19.6781ZM101.742 16.4029C102.541 16.4029 103.135 16.579 103.527 16.9311C103.918 17.2755 104.114 17.8194 104.114 18.5629V22.8477H103.233L102.987 21.9672H102.94C102.76 22.1942 102.572 22.382 102.376 22.5307C102.188 22.6794 101.969 22.789 101.719 22.8594C101.476 22.9298 101.179 22.965 100.827 22.965C100.451 22.965 100.111 22.8985 99.8054 22.7655C99.508 22.6246 99.2732 22.4133 99.1011 22.1316C98.9289 21.842 98.8428 21.482 98.8428 21.0516C98.8428 20.4098 99.0854 19.9207 99.5706 19.5842C100.064 19.2477 100.811 19.0637 101.813 19.0324L102.893 18.9972V18.645C102.893 18.1755 102.787 17.8468 102.576 17.659C102.365 17.4711 102.067 17.3772 101.684 17.3772C101.355 17.3772 101.042 17.4242 100.745 17.5181C100.447 17.612 100.165 17.7255 99.8993 17.8585L99.5002 16.9546C99.7976 16.7981 100.138 16.669 100.521 16.5672C100.913 16.4577 101.32 16.4029 101.742 16.4029ZM102.036 19.8307C101.316 19.862 100.815 19.9833 100.533 20.1946C100.259 20.3981 100.122 20.6877 100.122 21.0633C100.122 21.392 100.22 21.6307 100.416 21.7794C100.619 21.9281 100.874 22.0024 101.179 22.0024C101.672 22.0024 102.079 21.8655 102.4 21.5916C102.721 21.3177 102.881 20.9068 102.881 20.359V19.8072L102.036 19.8307ZM108.201 22.965C107.442 22.965 106.828 22.6911 106.358 22.1433C105.897 21.5955 105.666 20.7816 105.666 19.7016C105.666 18.6137 105.901 17.792 106.37 17.2364C106.84 16.6807 107.458 16.4029 108.225 16.4029C108.546 16.4029 108.824 16.4459 109.058 16.532C109.301 16.6103 109.508 16.7198 109.681 16.8607C109.861 17.0016 110.013 17.1581 110.138 17.3303H110.209C110.193 17.2207 110.174 17.0642 110.15 16.8607C110.127 16.6494 110.115 16.4616 110.115 16.2972V13.9259H111.359V22.8477H110.385L110.174 22.0024H110.115C109.998 22.1824 109.849 22.3468 109.669 22.4955C109.497 22.6364 109.289 22.7498 109.047 22.8359C108.804 22.922 108.522 22.965 108.201 22.965ZM108.495 21.9437C109.105 21.9437 109.536 21.7755 109.786 21.439C110.037 21.0946 110.162 20.582 110.162 19.9011V19.7133C110.162 18.9698 110.041 18.4024 109.798 18.0111C109.563 17.6198 109.125 17.4242 108.483 17.4242C107.975 17.4242 107.591 17.6316 107.333 18.0464C107.075 18.4533 106.945 19.0129 106.945 19.725C106.945 20.4372 107.075 20.985 107.333 21.3685C107.591 21.752 107.978 21.9437 108.495 21.9437ZM122.875 19.6781C122.875 20.2024 122.804 20.6681 122.664 21.075C122.523 21.482 122.323 21.8264 122.065 22.1081C121.807 22.3898 121.494 22.605 121.126 22.7537C120.758 22.8946 120.343 22.965 119.881 22.965C119.459 22.965 119.068 22.8946 118.708 22.7537C118.348 22.605 118.034 22.3898 117.768 22.1081C117.51 21.8264 117.307 21.482 117.158 21.075C117.009 20.6681 116.935 20.1985 116.935 19.6664C116.935 18.9698 117.052 18.379 117.287 17.8937C117.53 17.4085 117.874 17.0407 118.32 16.7903C118.774 16.532 119.306 16.4029 119.917 16.4029C120.496 16.4029 121.004 16.532 121.443 16.7903C121.889 17.0407 122.237 17.4085 122.488 17.8937C122.746 18.379 122.875 18.9737 122.875 19.6781ZM118.214 19.6781C118.214 20.1477 118.273 20.5546 118.391 20.899C118.508 21.2355 118.692 21.4937 118.942 21.6737C119.193 21.8537 119.514 21.9437 119.905 21.9437C120.296 21.9437 120.617 21.8537 120.868 21.6737C121.118 21.4937 121.302 21.2355 121.419 20.899C121.537 20.5546 121.595 20.1477 121.595 19.6781C121.595 19.1929 121.533 18.7859 121.408 18.4572C121.29 18.1285 121.106 17.8781 120.856 17.7059C120.613 17.5259 120.292 17.4359 119.893 17.4359C119.306 17.4359 118.88 17.6316 118.614 18.0229C118.348 18.4142 118.214 18.9659 118.214 19.6781ZM127.657 16.4029C128.393 16.4029 128.956 16.5868 129.348 16.9546C129.739 17.3224 129.935 17.9133 129.935 18.7272V22.8477H128.702V18.9033C128.702 18.4103 128.596 18.0424 128.385 17.7998C128.181 17.5494 127.853 17.4242 127.399 17.4242C126.757 17.4242 126.311 17.6159 126.061 17.9994C125.818 18.3829 125.697 18.9346 125.697 19.6546V22.8477H124.452V16.5203H125.438L125.615 17.3655H125.685C125.826 17.1464 125.998 16.9664 126.201 16.8255C126.405 16.6846 126.632 16.579 126.882 16.5085C127.133 16.4381 127.391 16.4029 127.657 16.4029ZM138.113 21.9555C138.278 21.9555 138.446 21.9398 138.618 21.9085C138.79 21.8772 138.939 21.842 139.064 21.8029V22.742C138.931 22.8046 138.751 22.8555 138.524 22.8946C138.297 22.9416 138.07 22.965 137.843 22.965C137.499 22.965 137.182 22.9064 136.893 22.789C136.611 22.6716 136.384 22.4681 136.212 22.1785C136.04 21.889 135.953 21.4859 135.953 20.9694V17.4711H135.073V16.9077L136 16.4381L136.435 15.0998H137.198V16.5203H139.006V17.4711H137.198V20.9459C137.198 21.2903 137.28 21.5446 137.444 21.709C137.617 21.8733 137.84 21.9555 138.113 21.9555ZM141.574 16.309C141.574 16.5046 141.567 16.7003 141.551 16.8959C141.535 17.0916 141.52 17.252 141.504 17.3772H141.586C141.719 17.1581 141.883 16.9781 142.079 16.8372C142.283 16.6964 142.506 16.5907 142.748 16.5203C142.999 16.4498 143.253 16.4146 143.511 16.4146C144.012 16.4146 144.431 16.4968 144.767 16.6611C145.112 16.8177 145.37 17.0681 145.542 17.4124C145.722 17.749 145.812 18.1872 145.812 18.7272V22.8477H144.58V18.9033C144.58 18.4103 144.474 18.0424 144.263 17.7998C144.059 17.5494 143.73 17.4242 143.277 17.4242C142.846 17.4242 142.506 17.5103 142.255 17.6824C142.013 17.8546 141.837 18.109 141.727 18.4455C141.625 18.7742 141.574 19.1811 141.574 19.6664V22.8477H140.33V13.9259H141.574V16.309ZM150.213 16.4029C150.769 16.4029 151.246 16.5203 151.645 16.755C152.044 16.982 152.349 17.3107 152.561 17.7411C152.78 18.1716 152.889 18.6803 152.889 19.2672V19.9481H148.64C148.656 20.5977 148.824 21.0946 149.145 21.439C149.473 21.7833 149.931 21.9555 150.518 21.9555C150.925 21.9555 151.285 21.9203 151.598 21.8498C151.919 21.7716 152.248 21.6581 152.584 21.5094V22.5424C152.271 22.6833 151.95 22.789 151.622 22.8594C151.301 22.9298 150.917 22.965 150.471 22.965C149.861 22.965 149.321 22.8437 148.851 22.6011C148.382 22.3585 148.014 21.9985 147.748 21.5211C147.489 21.0359 147.36 20.4411 147.36 19.7368C147.36 19.0246 147.478 18.422 147.713 17.929C147.955 17.4359 148.288 17.0603 148.71 16.802C149.141 16.5359 149.642 16.4029 150.213 16.4029ZM150.213 17.3655C149.767 17.3655 149.407 17.5103 149.133 17.7998C148.867 18.0894 148.71 18.5003 148.663 19.0324H151.645C151.645 18.7037 151.594 18.4142 151.493 18.1637C151.391 17.9133 151.234 17.7177 151.023 17.5768C150.812 17.4359 150.542 17.3655 150.213 17.3655Z" fill="#213B58"/>
<path d="M57.7721 46.7607H55.7755L60.3229 33.7204H62.4533L67.0006 46.7607H64.8894L63.6761 43.0254H58.995L57.7721 46.7607ZM61.3737 35.8604H61.3069L59.4631 41.4969H63.208L61.3737 35.8604ZM72.7939 46.9136C72.1634 46.9136 71.6029 46.7767 71.1125 46.5028C70.6221 46.2289 70.2368 45.8564 69.9566 45.3851H69.8897V50.219H67.9599V36.6915H69.8324V38.1532H69.8992C70.1922 37.6564 70.5934 37.2647 71.103 36.9781C71.6125 36.6852 72.1952 36.5387 72.8512 36.5387C74.004 36.5387 74.9402 36.959 75.6599 37.7997C76.386 38.6404 76.749 39.7964 76.749 41.2676V42.1751C76.749 43.64 76.386 44.7959 75.6599 45.643C74.9338 46.4901 73.9785 46.9136 72.7939 46.9136ZM72.4309 45.2895C73.1569 45.2895 73.7333 45.0093 74.16 44.4488C74.5867 43.882 74.8001 43.0827 74.8001 42.051V41.3345C74.8001 40.3282 74.5867 39.5448 74.16 38.9843C73.7397 38.4239 73.1506 38.1436 72.3927 38.1436C71.6157 38.1436 71.0011 38.4334 70.5489 39.013C70.0967 39.5862 69.8706 40.3568 69.8706 41.3249V42.051C69.8706 43.0445 70.0999 43.8342 70.5584 44.4202C71.017 44.9997 71.6411 45.2895 72.4309 45.2895ZM83.3161 46.9136C82.6855 46.9136 82.1251 46.7767 81.6347 46.5028C81.1443 46.2289 80.7589 45.8564 80.4787 45.3851H80.4118V50.219H78.4821V36.6915H80.3545V38.1532H80.4214C80.7144 37.6564 81.1156 37.2647 81.6251 36.9781C82.1346 36.6852 82.7174 36.5387 83.3734 36.5387C84.5261 36.5387 85.4624 36.959 86.1821 37.7997C86.9081 38.6404 87.2711 39.7964 87.2711 41.2676V42.1751C87.2711 43.64 86.9081 44.7959 86.1821 45.643C85.456 46.4901 84.5007 46.9136 83.3161 46.9136ZM82.953 45.2895C83.6791 45.2895 84.2555 45.0093 84.6822 44.4488C85.1089 43.882 85.3223 43.0827 85.3223 42.051V41.3345C85.3223 40.3282 85.1089 39.5448 84.6822 38.9843C84.2618 38.4239 83.6727 38.1436 82.9148 38.1436C82.1378 38.1436 81.5232 38.4334 81.071 39.013C80.6188 39.5862 80.3927 40.3568 80.3927 41.3249V42.051C80.3927 43.0445 80.622 43.8342 81.0806 44.4202C81.5391 44.9997 82.1633 45.2895 82.953 45.2895ZM91.3869 43.1782H93.3263C93.39 43.8088 93.6861 44.331 94.2147 44.745C94.7433 45.159 95.463 45.366 96.3738 45.366C97.2399 45.366 97.9246 45.1749 98.4277 44.7928C98.9309 44.4043 99.1825 43.882 99.1825 43.226C99.1825 42.7165 99.0137 42.3089 98.6761 42.0032C98.3449 41.6975 97.8163 41.4555 97.0903 41.2771L94.893 40.723C94.4599 40.6148 94.0651 40.4715 93.7084 40.2931C93.3517 40.1148 93.0206 39.8919 92.7149 39.6244C92.4155 39.3505 92.1799 39.013 92.0079 38.6118C91.8423 38.2041 91.7595 37.7488 91.7595 37.2456C91.7595 36.4495 91.9761 35.7585 92.4091 35.1726C92.8486 34.5802 93.4122 34.1408 94.1001 33.8542C94.7943 33.5676 95.5586 33.4243 96.3929 33.4243C97.2145 33.4243 97.966 33.5644 98.6475 33.8446C99.3289 34.1185 99.8894 34.5452 100.329 35.1248C100.768 35.7044 100.994 36.3922 101.007 37.1883H99.106C99.0487 36.5705 98.7844 36.0642 98.3131 35.6693C97.8482 35.2745 97.1985 35.077 96.3642 35.077C95.5745 35.077 94.9376 35.2585 94.4536 35.6216C93.9759 35.9782 93.7371 36.4718 93.7371 37.1023C93.7371 38.0194 94.3453 38.6245 95.5617 38.9175L97.7399 39.4716C98.1539 39.5735 98.5265 39.6913 98.8576 39.825C99.1888 39.9588 99.5009 40.1275 99.7939 40.3314C100.093 40.5288 100.338 40.7549 100.529 41.0096C100.727 41.258 100.883 41.5574 100.998 41.9077C101.112 42.2516 101.17 42.6369 101.17 43.0636C101.17 44.3119 100.708 45.2863 99.7843 45.9869C98.8672 46.6811 97.673 47.0282 96.2018 47.0282C95.5203 47.0282 94.9026 46.9486 94.3485 46.7894C93.7944 46.6365 93.339 46.4327 92.9823 46.178C92.6257 45.9232 92.3264 45.6271 92.0843 45.2895C91.8423 44.9456 91.6672 44.5985 91.5589 44.2482C91.457 43.8979 91.3997 43.5413 91.3869 43.1782ZM103.657 36.6915V34.2077H105.558V36.6915H107.536V38.2583H105.558V43.8374C105.558 44.4043 105.673 44.7896 105.902 44.9934C106.132 45.1908 106.546 45.2895 107.144 45.2895C107.272 45.2895 107.425 45.2832 107.603 45.2704V46.7703C107.348 46.8149 107.036 46.8372 106.667 46.8372C106.062 46.8372 105.562 46.783 105.167 46.6748C104.778 46.5601 104.469 46.3786 104.24 46.1302C104.017 45.8818 103.861 45.5857 103.772 45.2418C103.683 44.8915 103.638 44.4552 103.638 43.933V38.2583H102.263V36.6915H103.657ZM113.148 36.5196C114.536 36.5196 115.616 36.9622 116.386 37.8475C117.163 38.7264 117.552 39.8696 117.552 41.2771V42.1274C117.552 43.5667 117.167 44.7291 116.396 45.6143C115.625 46.4932 114.543 46.9327 113.148 46.9327C111.747 46.9327 110.658 46.4932 109.881 45.6143C109.104 44.7291 108.715 43.5667 108.715 42.1274V41.2867C108.715 39.8792 109.104 38.7328 109.881 37.8475C110.664 36.9622 111.753 36.5196 113.148 36.5196ZM114.972 38.9748C114.546 38.3952 113.934 38.1054 113.138 38.1054C112.342 38.1054 111.727 38.3952 111.294 38.9748C110.868 39.5543 110.654 40.3377 110.654 41.3249V42.0987C110.654 43.0795 110.868 43.8629 111.294 44.4488C111.727 45.0348 112.342 45.3277 113.138 45.3277C113.941 45.3277 114.552 45.038 114.972 44.4584C115.399 43.8725 115.613 43.0859 115.613 42.0987V41.3249C115.613 40.3377 115.399 39.5543 114.972 38.9748ZM119.266 46.7607V36.6915H121.196V37.9717H121.262C121.428 37.5959 121.715 37.2647 122.122 36.9781C122.536 36.6852 123.062 36.5387 123.699 36.5387C123.928 36.5387 124.154 36.5546 124.377 36.5864V38.3156C124.199 38.2774 123.912 38.2583 123.517 38.2583C121.982 38.2583 121.215 39.0671 121.215 40.6848V46.7607H119.266ZM129.377 46.9327C128.04 46.9327 126.982 46.5092 126.205 45.6621C125.428 44.8087 125.04 43.6495 125.04 42.1847V41.1243C125.04 39.7295 125.419 38.6149 126.177 37.7806C126.941 36.9399 127.982 36.5196 129.301 36.5196C130.619 36.5196 131.654 36.9495 132.406 37.8093C133.163 38.6627 133.542 39.7995 133.542 41.2198V42.1751H126.96V42.3853C126.96 43.2833 127.18 44.0062 127.619 44.5539C128.065 45.1016 128.664 45.3755 129.415 45.3755C129.963 45.3755 130.418 45.2481 130.782 44.9934C131.151 44.7386 131.409 44.382 131.555 43.9234H133.418C133.24 44.8023 132.804 45.5252 132.109 46.092C131.422 46.6525 130.511 46.9327 129.377 46.9327ZM126.96 40.7613H131.641V40.7326C131.641 39.9683 131.425 39.3314 130.992 38.8219C130.559 38.3124 129.998 38.0577 129.31 38.0577C128.61 38.0577 128.043 38.3124 127.61 38.8219C127.177 39.3314 126.96 39.9683 126.96 40.7326V40.7613Z" fill="#213B58"/>
</svg>
