<svg xmlns="http://www.w3.org/2000/svg" width="173" height="60" fill="none" viewBox="0 0 173 60"><rect width="172.174" height="60" fill="#fff" rx="12" transform="matrix(-1 0 0 1 172.174 0)"/><path fill="#ea4335" d="m33.126 28.675-12.144 13.18.002.008c.373 1.431 1.65 2.485 3.168 2.485.607 0 1.176-.168 1.664-.462l.039-.024 13.669-8.065z"/><path fill="#fbbc04" d="m45.411 26.43-.011-.008-5.902-3.498-6.648 6.05 6.672 6.821 5.87-3.463a3.37 3.37 0 0 0 1.728-2.957 3.36 3.36 0 0 0-1.709-2.945"/><path fill="#4285f4" d="M20.982 16.84a3.4 3.4 0 0 0-.112.863v23.291q0 .45.113.862l12.56-12.843z"/><path fill="#34a853" d="m33.216 29.348 6.284-6.426-13.653-8.095a3.23 3.23 0 0 0-1.695-.48c-1.517 0-2.797 1.056-3.17 2.489v.003z"/><path fill="#213b58" d="M65.009 22.909a4.25 4.25 0 0 1-1.774-.372 4.4 4.4 0 0 1-1.422-1.024A5 5 0 0 1 60.861 20a5 5 0 0 1-.34-1.839q0-1.03.366-1.891a4.7 4.7 0 0 1 2.459-2.472 4.3 4.3 0 0 1 1.695-.346q.985 0 1.911.463.933.457 1.644 1.416l-1.422.763a2.8 2.8 0 0 0-1.004-.796 2.64 2.64 0 0 0-2.25-.033 3 3 0 0 0-.933.666q-.405.423-.64 1.004a3.3 3.3 0 0 0-.234 1.259q0 .645.228 1.22.228.566.626.997.404.424.933.665a2.7 2.7 0 0 0 1.924.118q.39-.13.73-.372.346-.242.613-.587a3.3 3.3 0 0 0 .457-.783H65.96v-1.389h3.535a4.8 4.8 0 0 1-.313 1.872 4.8 4.8 0 0 1-.96 1.546 4.5 4.5 0 0 1-1.44 1.05 4.2 4.2 0 0 1-1.774.378m5.684-.17v-9.13h5.726V15.2h-4.135v1.852h3.28v1.592h-3.28v2.504h4.135v1.591zm14.071-9.13V15.2h-2.791v7.54h-1.591V15.2H77.59v-1.59zm4.632 9.13v-9.13h1.591v9.13zm10.272-9.13V15.2h-2.792v7.54h-1.591V15.2h-2.791v-1.59zm8.675 9.3a4.2 4.2 0 0 1-1.741-.365 4.6 4.6 0 0 1-1.435-1.024 4.8 4.8 0 0 1-1.324-3.346q0-.978.352-1.833a4.8 4.8 0 0 1 .972-1.513 4.5 4.5 0 0 1 1.435-1.017 4.15 4.15 0 0 1 1.741-.372q.932 0 1.748.372a4.5 4.5 0 0 1 1.435 1.017q.619.653.965 1.513.352.854.352 1.833 0 .978-.352 1.84a4.8 4.8 0 0 1-.965 1.506 4.6 4.6 0 0 1-1.435 1.024 4.2 4.2 0 0 1-1.748.365m0-1.591q.6 0 1.128-.248.528-.249.926-.679.405-.436.626-1.004.23-.567.229-1.213 0-.645-.229-1.213a3.2 3.2 0 0 0-.632-1.004 3 3 0 0 0-.926-.679 2.6 2.6 0 0 0-1.122-.247q-.6 0-1.128.247a3 3 0 0 0-.933.685q-.398.43-.626.998a3.3 3.3 0 0 0-.222 1.213q0 .652.228 1.22.229.567.627 1.004.404.43.926.678.528.241 1.128.241m5.683 1.421v-9.13h1.722l3.855 6.254V13.61h1.591v9.13h-1.715l-3.861-6.254v6.254zm15.929 19.848h1.981V29.18h-1.981zm17.843-8.577-2.271 5.812h-.068l-2.356-5.812h-2.134l3.534 8.123-2.014 4.519h2.065L150 34.009zm-11.234 7.054c-.65 0-1.554-.327-1.554-1.139 0-1.034 1.126-1.43 2.1-1.43.87 0 1.281.19 1.81.448-.154 1.242-1.213 2.121-2.356 2.121m.239-7.347c-1.434 0-2.921.638-3.534 2.053l1.758.74c.376-.74 1.075-.983 1.81-.983 1.024 0 2.066.621 2.083 1.726v.137c-.359-.207-1.127-.517-2.066-.517-1.895 0-3.825 1.052-3.825 3.018 0 1.794 1.554 2.95 3.295 2.95 1.332 0 2.067-.604 2.528-1.312h.068v1.035h1.912v-5.14c0-2.38-1.758-3.707-4.029-3.707m-12.243 1.925h-2.817v-4.595h2.817c1.481 0 2.322 1.239 2.322 2.297 0 1.04-.841 2.298-2.322 2.298m-.051-6.46h-4.746v13.405h1.98v-5.079h2.766c2.196 0 4.354-1.606 4.354-4.164s-2.158-4.163-4.354-4.163M98.625 41.064c-1.368 0-2.514-1.157-2.514-2.746 0-1.607 1.145-2.782 2.514-2.782 1.351 0 2.411 1.175 2.411 2.782 0 1.59-1.06 2.746-2.411 2.746m2.275-6.305h-.069c-.445-.535-1.3-1.019-2.377-1.019-2.258 0-4.327 2.003-4.327 4.578 0 2.556 2.069 4.543 4.327 4.543 1.078 0 1.932-.483 2.377-1.037h.069v.658c0 1.744-.924 2.677-2.412 2.677-1.215 0-1.967-.881-2.275-1.624l-1.727.726c.495 1.21 1.813 2.694 4.002 2.694 2.326 0 4.293-1.382 4.293-4.75v-8.19H100.9zm3.25 7.826h1.984V29.179h-1.984zm4.908-4.423c-.051-1.761 1.351-2.66 2.36-2.66.787 0 1.454.397 1.676.967zm6.157-1.52c-.376-1.019-1.522-2.902-3.865-2.902-2.326 0-4.259 1.848-4.259 4.56 0 2.557 1.916 4.561 4.48 4.561 2.071 0 3.268-1.278 3.764-2.021l-1.539-1.037c-.513.76-1.215 1.261-2.225 1.261-1.008 0-1.727-.466-2.189-1.381l6.038-2.523zm-48.1-1.503v1.935h4.583c-.137 1.088-.496 1.883-1.042 2.435-.668.675-1.712 1.418-3.541 1.418-2.823 0-5.029-2.298-5.029-5.148 0-2.852 2.206-5.149 5.029-5.149 1.522 0 2.634.605 3.455 1.383l1.35-1.366c-1.146-1.105-2.667-1.952-4.805-1.952-3.865 0-7.115 3.18-7.115 7.083 0 3.905 3.25 7.083 7.115 7.083 2.086 0 3.66-.691 4.89-1.987 1.267-1.278 1.66-3.074 1.66-4.526 0-.45-.034-.863-.103-1.209zm11.762 5.925c-1.369 0-2.55-1.14-2.55-2.763 0-1.642 1.181-2.765 2.55-2.765 1.367 0 2.548 1.123 2.548 2.765 0 1.623-1.18 2.763-2.548 2.763m0-7.324c-2.498 0-4.533 1.917-4.533 4.56 0 2.627 2.035 4.561 4.533 4.561 2.497 0 4.532-1.934 4.532-4.56 0-2.644-2.035-4.561-4.532-4.561m9.887 7.324c-1.369 0-2.55-1.14-2.55-2.763 0-1.642 1.181-2.765 2.55-2.765s2.547 1.123 2.547 2.765c0 1.623-1.179 2.763-2.547 2.763m0-7.324c-2.497 0-4.532 1.917-4.532 4.56 0 2.627 2.035 4.561 4.532 4.561s4.532-1.934 4.532-4.56c0-2.644-2.036-4.561-4.532-4.561"/></svg>