<svg xmlns="http://www.w3.org/2000/svg" width="70" height="70" fill="none" viewBox="0 0 70 70"><path fill="url(#a)" d="M25.9 11.003c4.723-5.71 13.477-5.71 18.2 0a11.8 11.8 0 0 0 7.132 4.118c7.307 1.234 11.684 8.816 9.1 15.761a11.8 11.8 0 0 0 0 8.236c2.584 6.945-1.793 14.526-9.1 15.761a11.8 11.8 0 0 0-7.132 4.118c-4.723 5.71-13.477 5.71-18.2 0a11.8 11.8 0 0 0-7.132-4.118c-7.307-1.234-11.684-8.816-9.1-15.761a11.8 11.8 0 0 0 0-8.236c-2.584-6.945 1.793-14.527 9.1-15.761a11.8 11.8 0 0 0 7.132-4.118"/><path stroke="#fff" stroke-linecap="round" stroke-linejoin="round" stroke-width="2" d="M39.051 35.832a1 1 0 0 1 1.909.024l.737 1.452a1 1 0 0 0 .737.535l1.634.256a1 1 0 0 1 .588 1.806l-1.172 1.168a1 1 0 0 0-.282.866l.259 1.613a1 1 0 0 1-1.541 1.134l-1.465-.75a1 1 0 0 0-.912 0l-1.465.75a1 1 0 0 1-1.539-1.133l.258-1.613a1 1 0 0 0-.282-.866l-1.156-1.153a1 1 0 0 1 .572-1.822l1.633-.256a1 1 0 0 0 .737-.535zM31 38.216h-1a4 4 0 0 0-4 4v2m7-10a4 4 0 1 0 0-8 4 4 0 0 0 0 8"/><defs><linearGradient id="a" x1="49" x2="13.5" y1="11.5" y2="60" gradientUnits="userSpaceOnUse"><stop stop-color="#87c752"/><stop offset="1" stop-color="#4ab8d2"/></linearGradient></defs></svg>